<svg xmlns="http://www.w3.org/2000/svg" width="240" height="240" viewBox="0 0 240 240"><circle cx="60" cy="60" r="10" fill="#c9a04a" fill-opacity=".07" stroke="#c9a04a" stroke-opacity=".32" stroke-width="1.5"/><circle cx="60" cy="60" r="6.5" fill="none" stroke="#c9a04a" stroke-opacity=".22" stroke-width="1"/><circle cx="60" cy="60" r="1.6" fill="#c9a04a" fill-opacity=".35"/><circle cx="85" cy="60" r="10" fill="#c9a04a" fill-opacity=".07" stroke="#c9a04a" stroke-opacity=".32" stroke-width="1.5"/><circle cx="85" cy="60" r="6.5" fill="none" stroke="#c9a04a" stroke-opacity=".22" stroke-width="1"/><circle cx="85" cy="60" r="1.6" fill="#c9a04a" fill-opacity=".35"/><circle cx="72.5" cy="81.7" r="10" fill="#c9a04a" fill-opacity=".07" stroke="#c9a04a" stroke-opacity=".32" stroke-width="1.5"/><circle cx="72.5" cy="81.7" r="6.5" fill="none" stroke="#c9a04a" stroke-opacity=".22" stroke-width="1"/><circle cx="72.5" cy="81.7" r="1.6" fill="#c9a04a" fill-opacity=".35"/><circle cx="47.5" cy="81.7" r="10" fill="#c9a04a" fill-opacity=".07" stroke="#c9a04a" stroke-opacity=".32" stroke-width="1.5"/><circle cx="47.5" cy="81.7" r="6.5" fill="none" stroke="#c9a04a" stroke-opacity=".22" stroke-width="1"/><circle cx="47.5" cy="81.7" r="1.6" fill="#c9a04a" fill-opacity=".35"/><circle cx="35" cy="60" r="10" fill="#c9a04a" fill-opacity=".07" stroke="#c9a04a" stroke-opacity=".32" stroke-width="1.5"/><circle cx="35" cy="60" r="6.5" fill="none" stroke="#c9a04a" stroke-opacity=".22" stroke-width="1"/><circle cx="35" cy="60" r="1.6" fill="#c9a04a" fill-opacity=".35"/><circle cx="47.5" cy="38.3" r="10" fill="#c9a04a" fill-opacity=".07" stroke="#c9a04a" stroke-opacity=".32" stroke-width="1.5"/><circle cx="47.5" cy="38.3" r="6.5" fill="none" stroke="#c9a04a" stroke-opacity=".22" stroke-width="1"/><circle cx="47.5" cy="38.3" r="1.6" fill="#c9a04a" fill-opacity=".35"/><circle cx="72.5" cy="38.3" r="10" fill="#c9a04a" fill-opacity=".07" stroke="#c9a04a" stroke-opacity=".32" stroke-width="1.5"/><circle cx="72.5" cy="38.3" r="6.5" fill="none" stroke="#c9a04a" stroke-opacity=".22" stroke-width="1"/><circle cx="72.5" cy="38.3" r="1.6" fill="#c9a04a" fill-opacity=".35"/><circle cx="180" cy="180" r="10" fill="#c9a04a" fill-opacity=".07" stroke="#c9a04a" stroke-opacity=".32" stroke-width="1.5"/><circle cx="180" cy="180" r="6.5" fill="none" stroke="#c9a04a" stroke-opacity=".22" stroke-width="1"/><circle cx="180" cy="180" r="1.6" fill="#c9a04a" fill-opacity=".35"/><circle cx="205" cy="180" r="10" fill="#c9a04a" fill-opacity=".07" stroke="#c9a04a" stroke-opacity=".32" stroke-width="1.5"/><circle cx="205" cy="180" r="6.5" fill="none" stroke="#c9a04a" stroke-opacity=".22" stroke-width="1"/><circle cx="205" cy="180" r="1.6" fill="#c9a04a" fill-opacity=".35"/><circle cx="192.5" cy="201.7" r="10" fill="#c9a04a" fill-opacity=".07" stroke="#c9a04a" stroke-opacity=".32" stroke-width="1.5"/><circle cx="192.5" cy="201.7" r="6.5" fill="none" stroke="#c9a04a" stroke-opacity=".22" stroke-width="1"/><circle cx="192.5" cy="201.7" r="1.6" fill="#c9a04a" fill-opacity=".35"/><circle cx="167.5" cy="201.7" r="10" fill="#c9a04a" fill-opacity=".07" stroke="#c9a04a" stroke-opacity=".32" stroke-width="1.5"/><circle cx="167.5" cy="201.7" r="6.5" fill="none" stroke="#c9a04a" stroke-opacity=".22" stroke-width="1"/><circle cx="167.5" cy="201.7" r="1.6" fill="#c9a04a" fill-opacity=".35"/><circle cx="155" cy="180" r="10" fill="#c9a04a" fill-opacity=".07" stroke="#c9a04a" stroke-opacity=".32" stroke-width="1.5"/><circle cx="155" cy="180" r="6.5" fill="none" stroke="#c9a04a" stroke-opacity=".22" stroke-width="1"/><circle cx="155" cy="180" r="1.6" fill="#c9a04a" fill-opacity=".35"/><circle cx="167.5" cy="158.3" r="10" fill="#c9a04a" fill-opacity=".07" stroke="#c9a04a" stroke-opacity=".32" stroke-width="1.5"/><circle cx="167.5" cy="158.3" r="6.5" fill="none" stroke="#c9a04a" stroke-opacity=".22" stroke-width="1"/><circle cx="167.5" cy="158.3" r="1.6" fill="#c9a04a" fill-opacity=".35"/><circle cx="192.5" cy="158.3" r="10" fill="#c9a04a" fill-opacity=".07" stroke="#c9a04a" stroke-opacity=".32" stroke-width="1.5"/><circle cx="192.5" cy="158.3" r="6.5" fill="none" stroke="#c9a04a" stroke-opacity=".22" stroke-width="1"/><circle cx="192.5" cy="158.3" r="1.6" fill="#c9a04a" fill-opacity=".35"/><g transform="translate(180 60) scale(1)" fill="none" stroke="#c9a04a" stroke-opacity=".28" stroke-width="3.5" stroke-linecap="round" stroke-linejoin="round"><path d="M0 0C-14 -10 -12 -30 0 -40C12 -30 14 -10 0 0Z"/><path d="M0 -6C-6 -16 -6 -26 0 -34"/><path d="M0 0V38"/><path d="M0 22C10 12 22 14 26 6C18 2 6 6 0 22Z"/></g><g transform="translate(60 182) scale(-1)" fill="none" stroke="#c9a04a" stroke-opacity=".28" stroke-width="3.5" stroke-linecap="round" stroke-linejoin="round"><path d="M0 0C-14 -10 -12 -30 0 -40C12 -30 14 -10 0 0Z"/><path d="M0 -6C-6 -16 -6 -26 0 -34"/><path d="M0 0V38"/><path d="M0 22C10 12 22 14 26 6C18 2 6 6 0 22Z"/></g></svg>