<svg xmlns="http://www.w3.org/2000/svg" width="220" height="220" viewBox="0 0 220 220"><defs><linearGradient id="p" x1="0" y1="0" x2="0" y2="1"><stop offset="0" stop-color="#fff" stop-opacity=".07"/><stop offset=".5" stop-color="#fff" stop-opacity=".02"/><stop offset="1" stop-color="#000" stop-opacity=".18"/></linearGradient><radialGradient id="r" cx=".5" cy=".5" r=".5"><stop offset="0" stop-color="#b5531c" stop-opacity=".22"/><stop offset="1" stop-color="#b5531c" stop-opacity="0"/></radialGradient></defs><rect x="6" y="6" width="208" height="98" rx="16" fill="url(#p)" stroke="#000" stroke-opacity=".35" stroke-width="3"/><rect x="9" y="9" width="202" height="92" rx="13" fill="none" stroke="#fff" stroke-opacity=".06" stroke-width="2"/><circle cx="20" cy="15" r="2.8" fill="#000" fill-opacity=".35"/><circle cx="19.3" cy="14.3" r="2.1" fill="#fff" fill-opacity=".13"/><circle cx="38.9" cy="15" r="2.8" fill="#000" fill-opacity=".35"/><circle cx="38.2" cy="14.3" r="2.1" fill="#fff" fill-opacity=".13"/><circle cx="56.8" cy="15" r="2.8" fill="#000" fill-opacity=".35"/><circle cx="56.1" cy="14.3" r="2.1" fill="#fff" fill-opacity=".13"/><circle cx="77.8" cy="15" r="2.8" fill="#000" fill-opacity=".35"/><circle cx="77.1" cy="14.3" r="2.1" fill="#fff" fill-opacity=".13"/><circle cx="95.2" cy="15" r="2.8" fill="#000" fill-opacity=".35"/><circle cx="94.5" cy="14.3" r="2.1" fill="#fff" fill-opacity=".13"/><circle cx="115.4" cy="15" r="2.8" fill="#000" fill-opacity=".35"/><circle cx="114.7" cy="14.3" r="2.1" fill="#fff" fill-opacity=".13"/><circle cx="134.6" cy="15" r="2.8" fill="#000" fill-opacity=".35"/><circle cx="133.9" cy="14.3" r="2.1" fill="#fff" fill-opacity=".13"/><circle cx="151.9" cy="15" r="2.8" fill="#000" fill-opacity=".35"/><circle cx="151.2" cy="14.3" r="2.1" fill="#fff" fill-opacity=".13"/><circle cx="172" cy="15" r="2.8" fill="#000" fill-opacity=".35"/><circle cx="171.3" cy="14.3" r="2.1" fill="#fff" fill-opacity=".13"/><circle cx="189.2" cy="15" r="2.8" fill="#000" fill-opacity=".35"/><circle cx="188.5" cy="14.3" r="2.1" fill="#fff" fill-opacity=".13"/><circle cx="20" cy="95" r="2.8" fill="#000" fill-opacity=".35"/><circle cx="19.3" cy="94.3" r="2.1" fill="#fff" fill-opacity=".13"/><circle cx="37.4" cy="95" r="2.8" fill="#000" fill-opacity=".35"/><circle cx="36.7" cy="94.3" r="2.1" fill="#fff" fill-opacity=".13"/><circle cx="55" cy="95" r="2.8" fill="#000" fill-opacity=".35"/><circle cx="54.3" cy="94.3" r="2.1" fill="#fff" fill-opacity=".13"/><circle cx="74.5" cy="95" r="2.8" fill="#000" fill-opacity=".35"/><circle cx="73.8" cy="94.3" r="2.1" fill="#fff" fill-opacity=".13"/><circle cx="96.5" cy="95" r="2.8" fill="#000" fill-opacity=".35"/><circle cx="95.8" cy="94.3" r="2.1" fill="#fff" fill-opacity=".13"/><circle cx="114.2" cy="95" r="2.8" fill="#000" fill-opacity=".35"/><circle cx="113.5" cy="94.3" r="2.1" fill="#fff" fill-opacity=".13"/><circle cx="132.6" cy="95" r="2.8" fill="#000" fill-opacity=".35"/><circle cx="131.9" cy="94.3" r="2.1" fill="#fff" fill-opacity=".13"/><circle cx="153.3" cy="95" r="2.8" fill="#000" fill-opacity=".35"/><circle cx="152.6" cy="94.3" r="2.1" fill="#fff" fill-opacity=".13"/><circle cx="176" cy="95" r="2.8" fill="#000" fill-opacity=".35"/><circle cx="175.3" cy="94.3" r="2.1" fill="#fff" fill-opacity=".13"/><circle cx="196.5" cy="95" r="2.8" fill="#000" fill-opacity=".35"/><circle cx="195.8" cy="94.3" r="2.1" fill="#fff" fill-opacity=".13"/><ellipse cx="20" cy="98" rx="12" ry="22" fill="url(#r)"/><rect x="6" y="116" width="98" height="98" rx="16" fill="url(#p)" stroke="#000" stroke-opacity=".35" stroke-width="3"/><rect x="9" y="119" width="92" height="92" rx="13" fill="none" stroke="#fff" stroke-opacity=".06" stroke-width="2"/><circle cx="20" cy="125" r="2.8" fill="#000" fill-opacity=".35"/><circle cx="19.3" cy="124.3" r="2.1" fill="#fff" fill-opacity=".13"/><circle cx="42.9" cy="125" r="2.8" fill="#000" fill-opacity=".35"/><circle cx="42.2" cy="124.3" r="2.1" fill="#fff" fill-opacity=".13"/><circle cx="60.1" cy="125" r="2.8" fill="#000" fill-opacity=".35"/><circle cx="59.4" cy="124.3" r="2.1" fill="#fff" fill-opacity=".13"/><circle cx="82.3" cy="125" r="2.8" fill="#000" fill-opacity=".35"/><circle cx="81.6" cy="124.3" r="2.1" fill="#fff" fill-opacity=".13"/><circle cx="20" cy="205" r="2.8" fill="#000" fill-opacity=".35"/><circle cx="19.3" cy="204.3" r="2.1" fill="#fff" fill-opacity=".13"/><circle cx="37.9" cy="205" r="2.8" fill="#000" fill-opacity=".35"/><circle cx="37.2" cy="204.3" r="2.1" fill="#fff" fill-opacity=".13"/><circle cx="55.6" cy="205" r="2.8" fill="#000" fill-opacity=".35"/><circle cx="54.9" cy="204.3" r="2.1" fill="#fff" fill-opacity=".13"/><circle cx="74.4" cy="205" r="2.8" fill="#000" fill-opacity=".35"/><circle cx="73.7" cy="204.3" r="2.1" fill="#fff" fill-opacity=".13"/><ellipse cx="20" cy="208" rx="12" ry="22" fill="url(#r)"/><rect x="116" y="116" width="98" height="98" rx="16" fill="url(#p)" stroke="#000" stroke-opacity=".35" stroke-width="3"/><rect x="119" y="119" width="92" height="92" rx="13" fill="none" stroke="#fff" stroke-opacity=".06" stroke-width="2"/><circle cx="130" cy="125" r="2.8" fill="#000" fill-opacity=".35"/><circle cx="129.3" cy="124.3" r="2.1" fill="#fff" fill-opacity=".13"/><circle cx="148.1" cy="125" r="2.8" fill="#000" fill-opacity=".35"/><circle cx="147.4" cy="124.3" r="2.1" fill="#fff" fill-opacity=".13"/><circle cx="168.6" cy="125" r="2.8" fill="#000" fill-opacity=".35"/><circle cx="167.9" cy="124.3" r="2.1" fill="#fff" fill-opacity=".13"/><circle cx="189.4" cy="125" r="2.8" fill="#000" fill-opacity=".35"/><circle cx="188.7" cy="124.3" r="2.1" fill="#fff" fill-opacity=".13"/><circle cx="130" cy="205" r="2.8" fill="#000" fill-opacity=".35"/><circle cx="129.3" cy="204.3" r="2.1" fill="#fff" fill-opacity=".13"/><circle cx="150.3" cy="205" r="2.8" fill="#000" fill-opacity=".35"/><circle cx="149.6" cy="204.3" r="2.1" fill="#fff" fill-opacity=".13"/><circle cx="167.7" cy="205" r="2.8" fill="#000" fill-opacity=".35"/><circle cx="167" cy="204.3" r="2.1" fill="#fff" fill-opacity=".13"/><circle cx="185" cy="205" r="2.8" fill="#000" fill-opacity=".35"/><circle cx="184.3" cy="204.3" r="2.1" fill="#fff" fill-opacity=".13"/><circle cx="203.3" cy="205" r="2.8" fill="#000" fill-opacity=".35"/><circle cx="202.6" cy="204.3" r="2.1" fill="#fff" fill-opacity=".13"/><ellipse cx="130" cy="208" rx="12" ry="22" fill="url(#r)"/><circle cx="6" cy="110" r="2" fill="#fff" fill-opacity=".05" stroke="#000" stroke-opacity=".18" stroke-width=".6"/><circle cx="9.2" cy="110.8" r="2" fill="#fff" fill-opacity=".05" stroke="#000" stroke-opacity=".18" stroke-width=".6"/><circle cx="12.4" cy="109.8" r="2" fill="#fff" fill-opacity=".05" stroke="#000" stroke-opacity=".18" stroke-width=".6"/><circle cx="15.6" cy="109.3" r="2" fill="#fff" fill-opacity=".05" stroke="#000" stroke-opacity=".18" stroke-width=".6"/><circle cx="18.8" cy="110.4" r="2" fill="#fff" fill-opacity=".05" stroke="#000" stroke-opacity=".18" stroke-width=".6"/><circle cx="22" cy="110.6" r="2" fill="#fff" fill-opacity=".05" stroke="#000" stroke-opacity=".18" stroke-width=".6"/><circle cx="25.2" cy="109.4" r="2" fill="#fff" fill-opacity=".05" stroke="#000" stroke-opacity=".18" stroke-width=".6"/><circle cx="28.4" cy="109.5" r="2" fill="#fff" fill-opacity=".05" stroke="#000" stroke-opacity=".18" stroke-width=".6"/><circle cx="31.6" cy="110.7" r="2" fill="#fff" fill-opacity=".05" stroke="#000" stroke-opacity=".18" stroke-width=".6"/><circle cx="34.8" cy="110.3" r="2" fill="#fff" fill-opacity=".05" stroke="#000" stroke-opacity=".18" stroke-width=".6"/><circle cx="38" cy="109.2" r="2" fill="#fff" fill-opacity=".05" stroke="#000" stroke-opacity=".18" stroke-width=".6"/><circle cx="41.2" cy="109.9" r="2" fill="#fff" fill-opacity=".05" stroke="#000" stroke-opacity=".18" stroke-width=".6"/><circle cx="44.4" cy="110.8" r="2" fill="#fff" fill-opacity=".05" stroke="#000" stroke-opacity=".18" stroke-width=".6"/><circle cx="47.6" cy="109.9" r="2" fill="#fff" fill-opacity=".05" stroke="#000" stroke-opacity=".18" stroke-width=".6"/><circle cx="50.8" cy="109.2" r="2" fill="#fff" fill-opacity=".05" stroke="#000" stroke-opacity=".18" stroke-width=".6"/><circle cx="54" cy="110.3" r="2" fill="#fff" fill-opacity=".05" stroke="#000" stroke-opacity=".18" stroke-width=".6"/><circle cx="57.2" cy="110.7" r="2" fill="#fff" fill-opacity=".05" stroke="#000" stroke-opacity=".18" stroke-width=".6"/><circle cx="60.4" cy="109.5" r="2" fill="#fff" fill-opacity=".05" stroke="#000" stroke-opacity=".18" stroke-width=".6"/><circle cx="63.6" cy="109.4" r="2" fill="#fff" fill-opacity=".05" stroke="#000" stroke-opacity=".18" stroke-width=".6"/><circle cx="66.8" cy="110.6" r="2" fill="#fff" fill-opacity=".05" stroke="#000" stroke-opacity=".18" stroke-width=".6"/><circle cx="70" cy="110.4" r="2" fill="#fff" fill-opacity=".05" stroke="#000" stroke-opacity=".18" stroke-width=".6"/><circle cx="73.2" cy="109.3" r="2" fill="#fff" fill-opacity=".05" stroke="#000" stroke-opacity=".18" stroke-width=".6"/><circle cx="76.4" cy="109.8" r="2" fill="#fff" fill-opacity=".05" stroke="#000" stroke-opacity=".18" stroke-width=".6"/><circle cx="79.6" cy="110.8" r="2" fill="#fff" fill-opacity=".05" stroke="#000" stroke-opacity=".18" stroke-width=".6"/><circle cx="82.8" cy="110" r="2" fill="#fff" fill-opacity=".05" stroke="#000" stroke-opacity=".18" stroke-width=".6"/><circle cx="86" cy="109.2" r="2" fill="#fff" fill-opacity=".05" stroke="#000" stroke-opacity=".18" stroke-width=".6"/><circle cx="89.2" cy="110.2" r="2" fill="#fff" fill-opacity=".05" stroke="#000" stroke-opacity=".18" stroke-width=".6"/><circle cx="92.4" cy="110.8" r="2" fill="#fff" fill-opacity=".05" stroke="#000" stroke-opacity=".18" stroke-width=".6"/><circle cx="95.6" cy="109.6" r="2" fill="#fff" fill-opacity=".05" stroke="#000" stroke-opacity=".18" stroke-width=".6"/><circle cx="98.8" cy="109.3" r="2" fill="#fff" fill-opacity=".05" stroke="#000" stroke-opacity=".18" stroke-width=".6"/><circle cx="102" cy="110.5" r="2" fill="#fff" fill-opacity=".05" stroke="#000" stroke-opacity=".18" stroke-width=".6"/><circle cx="105.2" cy="110.5" r="2" fill="#fff" fill-opacity=".05" stroke="#000" stroke-opacity=".18" stroke-width=".6"/><circle cx="108.4" cy="109.3" r="2" fill="#fff" fill-opacity=".05" stroke="#000" stroke-opacity=".18" stroke-width=".6"/><circle cx="111.6" cy="109.7" r="2" fill="#fff" fill-opacity=".05" stroke="#000" stroke-opacity=".18" stroke-width=".6"/><circle cx="114.8" cy="110.8" r="2" fill="#fff" fill-opacity=".05" stroke="#000" stroke-opacity=".18" stroke-width=".6"/><circle cx="118" cy="110.2" r="2" fill="#fff" fill-opacity=".05" stroke="#000" stroke-opacity=".18" stroke-width=".6"/><circle cx="121.2" cy="109.2" r="2" fill="#fff" fill-opacity=".05" stroke="#000" stroke-opacity=".18" stroke-width=".6"/><circle cx="124.4" cy="110.1" r="2" fill="#fff" fill-opacity=".05" stroke="#000" stroke-opacity=".18" stroke-width=".6"/><circle cx="127.6" cy="110.8" r="2" fill="#fff" fill-opacity=".05" stroke="#000" stroke-opacity=".18" stroke-width=".6"/><circle cx="130.8" cy="109.7" r="2" fill="#fff" fill-opacity=".05" stroke="#000" stroke-opacity=".18" stroke-width=".6"/><circle cx="134" cy="109.3" r="2" fill="#fff" fill-opacity=".05" stroke="#000" stroke-opacity=".18" stroke-width=".6"/><circle cx="137.2" cy="110.4" r="2" fill="#fff" fill-opacity=".05" stroke="#000" stroke-opacity=".18" stroke-width=".6"/><circle cx="140.4" cy="110.6" r="2" fill="#fff" fill-opacity=".05" stroke="#000" stroke-opacity=".18" stroke-width=".6"/><circle cx="143.6" cy="109.4" r="2" fill="#fff" fill-opacity=".05" stroke="#000" stroke-opacity=".18" stroke-width=".6"/><circle cx="146.8" cy="109.5" r="2" fill="#fff" fill-opacity=".05" stroke="#000" stroke-opacity=".18" stroke-width=".6"/><circle cx="150" cy="110.7" r="2" fill="#fff" fill-opacity=".05" stroke="#000" stroke-opacity=".18" stroke-width=".6"/><circle cx="153.2" cy="110.3" r="2" fill="#fff" fill-opacity=".05" stroke="#000" stroke-opacity=".18" stroke-width=".6"/><circle cx="156.4" cy="109.2" r="2" fill="#fff" fill-opacity=".05" stroke="#000" stroke-opacity=".18" stroke-width=".6"/><circle cx="159.6" cy="109.9" r="2" fill="#fff" fill-opacity=".05" stroke="#000" stroke-opacity=".18" stroke-width=".6"/><circle cx="162.8" cy="110.8" r="2" fill="#fff" fill-opacity=".05" stroke="#000" stroke-opacity=".18" stroke-width=".6"/><circle cx="166" cy="109.9" r="2" fill="#fff" fill-opacity=".05" stroke="#000" stroke-opacity=".18" stroke-width=".6"/><circle cx="169.2" cy="109.2" r="2" fill="#fff" fill-opacity=".05" stroke="#000" stroke-opacity=".18" stroke-width=".6"/><circle cx="172.4" cy="110.3" r="2" fill="#fff" fill-opacity=".05" stroke="#000" stroke-opacity=".18" stroke-width=".6"/><circle cx="175.6" cy="110.7" r="2" fill="#fff" fill-opacity=".05" stroke="#000" stroke-opacity=".18" stroke-width=".6"/><circle cx="178.8" cy="109.5" r="2" fill="#fff" fill-opacity=".05" stroke="#000" stroke-opacity=".18" stroke-width=".6"/><circle cx="182" cy="109.5" r="2" fill="#fff" fill-opacity=".05" stroke="#000" stroke-opacity=".18" stroke-width=".6"/><circle cx="185.2" cy="110.7" r="2" fill="#fff" fill-opacity=".05" stroke="#000" stroke-opacity=".18" stroke-width=".6"/><circle cx="188.4" cy="110.4" r="2" fill="#fff" fill-opacity=".05" stroke="#000" stroke-opacity=".18" stroke-width=".6"/><circle cx="191.6" cy="109.3" r="2" fill="#fff" fill-opacity=".05" stroke="#000" stroke-opacity=".18" stroke-width=".6"/><circle cx="194.8" cy="109.8" r="2" fill="#fff" fill-opacity=".05" stroke="#000" stroke-opacity=".18" stroke-width=".6"/><circle cx="198" cy="110.8" r="2" fill="#fff" fill-opacity=".05" stroke="#000" stroke-opacity=".18" stroke-width=".6"/><circle cx="201.2" cy="110" r="2" fill="#fff" fill-opacity=".05" stroke="#000" stroke-opacity=".18" stroke-width=".6"/><circle cx="204.4" cy="109.2" r="2" fill="#fff" fill-opacity=".05" stroke="#000" stroke-opacity=".18" stroke-width=".6"/><circle cx="207.6" cy="110.2" r="2" fill="#fff" fill-opacity=".05" stroke="#000" stroke-opacity=".18" stroke-width=".6"/><circle cx="210.8" cy="110.7" r="2" fill="#fff" fill-opacity=".05" stroke="#000" stroke-opacity=".18" stroke-width=".6"/><circle cx="214" cy="109.6" r="2" fill="#fff" fill-opacity=".05" stroke="#000" stroke-opacity=".18" stroke-width=".6"/><path d="M95.5 72.8l13.2 1.1" stroke="#fff" stroke-opacity=".07" stroke-width="1" stroke-linecap="round"/><path d="M70 168.9l9.7 2" stroke="#fff" stroke-opacity=".07" stroke-width="1" stroke-linecap="round"/><path d="M124.9 115l16.4 6.5" stroke="#fff" stroke-opacity=".07" stroke-width="1" stroke-linecap="round"/><path d="M67.6 206l11.8 -4.7" stroke="#fff" stroke-opacity=".07" stroke-width="1" stroke-linecap="round"/><path d="M161.4 40.4l6.6 -0.1" stroke="#fff" stroke-opacity=".07" stroke-width="1" stroke-linecap="round"/><path d="M143.6 162.9l20 1.5" stroke="#fff" stroke-opacity=".07" stroke-width="1" stroke-linecap="round"/><path d="M72.7 149.1l15.2 1.4" stroke="#fff" stroke-opacity=".07" stroke-width="1" stroke-linecap="round"/><path d="M101.2 178l12.3 5.8" stroke="#fff" stroke-opacity=".07" stroke-width="1" stroke-linecap="round"/><path d="M142.8 22.1l16 3.3" stroke="#fff" stroke-opacity=".07" stroke-width="1" stroke-linecap="round"/><path d="M208.6 174.4l11.9 -2.6" stroke="#fff" stroke-opacity=".07" stroke-width="1" stroke-linecap="round"/><path d="M143.7 14.5l8.7 -0.3" stroke="#fff" stroke-opacity=".07" stroke-width="1" stroke-linecap="round"/><path d="M33.4 21.8l7.8 2.1" stroke="#fff" stroke-opacity=".07" stroke-width="1" stroke-linecap="round"/><path d="M59.5 88.2l6.8 2.6" stroke="#fff" stroke-opacity=".07" stroke-width="1" stroke-linecap="round"/><path d="M99.8 119.9l17.7 7.1" stroke="#fff" stroke-opacity=".07" stroke-width="1" stroke-linecap="round"/></svg>